<svg width="26" height="25" viewBox="0 0 26 25" fill="none" xmlns="http://www.w3.org/2000/svg">
<path d="M13.0002 22.0679C12.7571 22.0679 12.5488 22.001 12.3752 21.8673C12.2016 21.7335 12.0713 21.558 11.9845 21.3407C11.6547 20.4044 11.238 19.5267 10.7345 18.7076C10.2484 17.8884 9.56266 16.9271 8.67725 15.8237C7.79183 14.7203 7.07134 13.667 6.51579 12.664C5.97759 11.6609 5.7085 10.4488 5.7085 9.02777C5.7085 7.07175 6.41162 5.41666 7.81787 4.06249C9.24148 2.69161 10.9689 2.00616 13.0002 2.00616C15.0314 2.00616 16.7502 2.69161 18.1564 4.06249C19.58 5.41666 20.2918 7.07175 20.2918 9.02777C20.2918 10.5491 19.988 11.8197 19.3804 12.8395C18.7901 13.8426 18.1043 14.8373 17.3231 15.8237C16.3856 17.0274 15.6738 18.0305 15.1877 18.8329C14.7189 19.6187 14.3283 20.4546 14.0158 21.3407C13.929 21.5747 13.7901 21.7586 13.5991 21.8924C13.4255 22.0094 13.2259 22.0679 13.0002 22.0679ZM13.0002 11.5355C13.7293 11.5355 14.3456 11.2931 14.8491 10.8082C15.3526 10.3234 15.6043 9.72993 15.6043 9.02777C15.6043 8.32561 15.3526 7.73211 14.8491 7.24729C14.3456 6.76247 13.7293 6.52005 13.0002 6.52005C12.271 6.52005 11.6547 6.76247 11.1512 7.24729C10.6477 7.73211 10.396 8.32561 10.396 9.02777C10.396 9.72993 10.6477 10.3234 11.1512 10.8082C11.6547 11.2931 12.271 11.5355 13.0002 11.5355Z" fill="white"/>
</svg>
