<svg width="35" height="35" viewBox="0 0 35 35" fill="none" xmlns="http://www.w3.org/2000/svg">
<path d="M10.2083 16.0417V10.2083C10.2083 8.27445 10.9766 6.41979 12.344 5.05234C13.7115 3.68488 15.5661 2.91666 17.5 2.91666C19.4339 2.91666 21.2885 3.68488 22.656 5.05234C24.0234 6.41979 24.7917 8.27445 24.7917 10.2083V16.0417M7.29167 16.0417H27.7083C29.3192 16.0417 30.625 17.3475 30.625 18.9583V29.1667C30.625 30.7775 29.3192 32.0833 27.7083 32.0833H7.29167C5.68084 32.0833 4.375 30.7775 4.375 29.1667V18.9583C4.375 17.3475 5.68084 16.0417 7.29167 16.0417Z" stroke="white" stroke-width="4" stroke-linecap="round" stroke-linejoin="round"/>
</svg>
