<svg width="231" height="60" viewBox="0 0 231 60" fill="none" xmlns="http://www.w3.org/2000/svg">
<path d="M13.7727 41.5H10.8182L19.3636 18.2273H22.2727L30.8182 41.5H27.8636L20.9091 21.9091H20.7273L13.7727 41.5ZM14.8636 32.4091H26.7727V34.9091H14.8636V32.4091ZM37.2614 18.2273V41.5H34.4432V18.2273H37.2614ZM50.0938 41.5H42.9119V18.2273H50.4119C52.6695 18.2273 54.6013 18.6932 56.2074 19.625C57.8134 20.5492 59.0445 21.8788 59.9006 23.6136C60.7566 25.3409 61.1847 27.4091 61.1847 29.8182C61.1847 32.2424 60.7528 34.3295 59.8892 36.0795C59.0256 37.822 57.768 39.1629 56.1165 40.1023C54.465 41.0341 52.4574 41.5 50.0938 41.5ZM45.7301 39H49.9119C51.8362 39 53.4309 38.6288 54.696 37.8864C55.9612 37.1439 56.9044 36.0871 57.5256 34.7159C58.1468 33.3447 58.4574 31.7121 58.4574 29.8182C58.4574 27.9394 58.1506 26.322 57.5369 24.9659C56.9233 23.6023 56.0066 22.5568 54.7869 21.8295C53.5672 21.0947 52.0483 20.7273 50.2301 20.7273H45.7301V39ZM84.6392 25.5H81.821C81.6544 24.6894 81.3627 23.9773 80.946 23.3636C80.5369 22.75 80.0369 22.2348 79.446 21.8182C78.8627 21.3939 78.215 21.0758 77.5028 20.8636C76.7907 20.6515 76.0483 20.5455 75.2756 20.5455C73.8665 20.5455 72.59 20.9015 71.446 21.6136C70.3097 22.3258 69.4044 23.375 68.7301 24.7614C68.0634 26.1477 67.7301 27.8485 67.7301 29.8636C67.7301 31.8788 68.0634 33.5795 68.7301 34.9659C69.4044 36.3523 70.3097 37.4015 71.446 38.1136C72.59 38.8258 73.8665 39.1818 75.2756 39.1818C76.0483 39.1818 76.7907 39.0758 77.5028 38.8636C78.215 38.6515 78.8627 38.3371 79.446 37.9205C80.0369 37.4962 80.5369 36.9773 80.946 36.3636C81.3627 35.7424 81.6544 35.0303 81.821 34.2273H84.6392C84.4271 35.4167 84.0407 36.4811 83.4801 37.4205C82.9195 38.3598 82.2225 39.1591 81.3892 39.8182C80.5559 40.4697 79.6203 40.9659 78.5824 41.3068C77.5521 41.6477 76.4498 41.8182 75.2756 41.8182C73.2907 41.8182 71.5256 41.3333 69.9801 40.3636C68.4347 39.3939 67.2188 38.0152 66.3324 36.2273C65.446 34.4394 65.0028 32.3182 65.0028 29.8636C65.0028 27.4091 65.446 25.2879 66.3324 23.5C67.2188 21.7121 68.4347 20.3333 69.9801 19.3636C71.5256 18.3939 73.2907 17.9091 75.2756 17.9091C76.4498 17.9091 77.5521 18.0795 78.5824 18.4205C79.6203 18.7614 80.5559 19.2614 81.3892 19.9205C82.2225 20.572 82.9195 21.3674 83.4801 22.3068C84.0407 23.2386 84.4271 24.303 84.6392 25.5ZM108.83 29.8636C108.83 32.3182 108.386 34.4394 107.5 36.2273C106.614 38.0152 105.398 39.3939 103.852 40.3636C102.307 41.3333 100.542 41.8182 98.5568 41.8182C96.572 41.8182 94.8068 41.3333 93.2614 40.3636C91.7159 39.3939 90.5 38.0152 89.6136 36.2273C88.7273 34.4394 88.2841 32.3182 88.2841 29.8636C88.2841 27.4091 88.7273 25.2879 89.6136 23.5C90.5 21.7121 91.7159 20.3333 93.2614 19.3636C94.8068 18.3939 96.572 17.9091 98.5568 17.9091C100.542 17.9091 102.307 18.3939 103.852 19.3636C105.398 20.3333 106.614 21.7121 107.5 23.5C108.386 25.2879 108.83 27.4091 108.83 29.8636ZM106.102 29.8636C106.102 27.8485 105.765 26.1477 105.091 24.7614C104.424 23.375 103.519 22.3258 102.375 21.6136C101.239 20.9015 99.9659 20.5455 98.5568 20.5455C97.1477 20.5455 95.8712 20.9015 94.7273 21.6136C93.5909 22.3258 92.6856 23.375 92.0114 24.7614C91.3447 26.1477 91.0114 27.8485 91.0114 29.8636C91.0114 31.8788 91.3447 33.5795 92.0114 34.9659C92.6856 36.3523 93.5909 37.4015 94.7273 38.1136C95.8712 38.8258 97.1477 39.1818 98.5568 39.1818C99.9659 39.1818 101.239 38.8258 102.375 38.1136C103.519 37.4015 104.424 36.3523 105.091 34.9659C105.765 33.5795 106.102 31.8788 106.102 29.8636Z" fill="black"/>
<path d="M122.568 41.5V18.2273H130.432C132.258 18.2273 133.75 18.5568 134.909 19.2159C136.076 19.8674 136.939 20.75 137.5 21.8636C138.061 22.9773 138.341 24.2197 138.341 25.5909C138.341 26.9621 138.061 28.2083 137.5 29.3295C136.947 30.4508 136.091 31.3447 134.932 32.0114C133.773 32.6705 132.288 33 130.477 33H124.841V30.5H130.386C131.636 30.5 132.64 30.2841 133.398 29.8523C134.155 29.4205 134.705 28.8371 135.045 28.1023C135.394 27.3598 135.568 26.5227 135.568 25.5909C135.568 24.6591 135.394 23.8258 135.045 23.0909C134.705 22.3561 134.152 21.7803 133.386 21.3636C132.621 20.9394 131.606 20.7273 130.341 20.7273H125.386V41.5H122.568ZM142.881 41.5V18.2273H150.744C152.563 18.2273 154.055 18.5379 155.222 19.1591C156.388 19.7727 157.252 20.6174 157.812 21.6932C158.373 22.7689 158.653 23.9924 158.653 25.3636C158.653 26.7348 158.373 27.9508 157.812 29.0114C157.252 30.072 156.392 30.9053 155.233 31.5114C154.074 32.1098 152.593 32.4091 150.79 32.4091H144.426V29.8636H150.699C151.941 29.8636 152.941 29.6818 153.699 29.3182C154.464 28.9545 155.017 28.4394 155.358 27.7727C155.706 27.0985 155.881 26.2955 155.881 25.3636C155.881 24.4318 155.706 23.6174 155.358 22.9205C155.009 22.2235 154.453 21.6856 153.688 21.3068C152.922 20.9205 151.911 20.7273 150.653 20.7273H145.699V41.5H142.881ZM153.835 31.0455L159.562 41.5H156.29L150.653 31.0455H153.835ZM163.349 41.5V18.2273H177.395V20.7273H166.168V28.5909H176.668V31.0909H166.168V39H177.577V41.5H163.349ZM195.202 24.0455C195.065 22.8939 194.512 22 193.543 21.3636C192.573 20.7273 191.384 20.4091 189.974 20.4091C188.944 20.4091 188.043 20.5758 187.27 20.9091C186.505 21.2424 185.906 21.7008 185.474 22.2841C185.05 22.8674 184.838 23.5303 184.838 24.2727C184.838 24.8939 184.986 25.428 185.281 25.875C185.584 26.3144 185.971 26.6818 186.44 26.9773C186.91 27.2652 187.402 27.5038 187.918 27.6932C188.433 27.875 188.906 28.0227 189.338 28.1364L191.702 28.7727C192.308 28.9318 192.982 29.1515 193.724 29.4318C194.474 29.7121 195.19 30.0947 195.872 30.5795C196.562 31.0568 197.13 31.6705 197.577 32.4205C198.024 33.1705 198.247 34.0909 198.247 35.1818C198.247 36.4394 197.918 37.5758 197.259 38.5909C196.607 39.6061 195.652 40.4129 194.395 41.0114C193.145 41.6098 191.626 41.9091 189.838 41.9091C188.171 41.9091 186.728 41.6402 185.509 41.1023C184.296 40.5644 183.342 39.8144 182.645 38.8523C181.955 37.8902 181.565 36.7727 181.474 35.5H184.384C184.459 36.3788 184.755 37.1061 185.27 37.6818C185.793 38.25 186.452 38.6742 187.247 38.9545C188.05 39.2273 188.914 39.3636 189.838 39.3636C190.914 39.3636 191.88 39.1894 192.736 38.8409C193.592 38.4848 194.27 37.9924 194.77 37.3636C195.27 36.7273 195.52 35.9848 195.52 35.1364C195.52 34.3636 195.304 33.7348 194.872 33.25C194.44 32.7652 193.872 32.3712 193.168 32.0682C192.463 31.7652 191.702 31.5 190.884 31.2727L188.02 30.4545C186.202 29.9318 184.762 29.1856 183.702 28.2159C182.641 27.2462 182.111 25.9773 182.111 24.4091C182.111 23.1061 182.463 21.9697 183.168 21C183.88 20.0227 184.834 19.2652 186.031 18.7273C187.236 18.1818 188.58 17.9091 190.065 17.9091C191.565 17.9091 192.899 18.178 194.065 18.7159C195.232 19.2462 196.156 19.9735 196.838 20.8977C197.527 21.822 197.891 22.8712 197.929 24.0455H195.202ZM215.608 24.0455C215.472 22.8939 214.919 22 213.949 21.3636C212.979 20.7273 211.79 20.4091 210.381 20.4091C209.35 20.4091 208.449 20.5758 207.676 20.9091C206.911 21.2424 206.313 21.7008 205.881 22.2841C205.456 22.8674 205.244 23.5303 205.244 24.2727C205.244 24.8939 205.392 25.428 205.688 25.875C205.991 26.3144 206.377 26.6818 206.847 26.9773C207.316 27.2652 207.809 27.5038 208.324 27.6932C208.839 27.875 209.312 28.0227 209.744 28.1364L212.108 28.7727C212.714 28.9318 213.388 29.1515 214.131 29.4318C214.881 29.7121 215.597 30.0947 216.278 30.5795C216.968 31.0568 217.536 31.6705 217.983 32.4205C218.43 33.1705 218.653 34.0909 218.653 35.1818C218.653 36.4394 218.324 37.5758 217.665 38.5909C217.013 39.6061 216.059 40.4129 214.801 41.0114C213.551 41.6098 212.032 41.9091 210.244 41.9091C208.578 41.9091 207.134 41.6402 205.915 41.1023C204.703 40.5644 203.748 39.8144 203.051 38.8523C202.362 37.8902 201.972 36.7727 201.881 35.5H204.79C204.866 36.3788 205.161 37.1061 205.676 37.6818C206.199 38.25 206.858 38.6742 207.653 38.9545C208.456 39.2273 209.32 39.3636 210.244 39.3636C211.32 39.3636 212.286 39.1894 213.142 38.8409C213.998 38.4848 214.676 37.9924 215.176 37.3636C215.676 36.7273 215.926 35.9848 215.926 35.1364C215.926 34.3636 215.71 33.7348 215.278 33.25C214.847 32.7652 214.278 32.3712 213.574 32.0682C212.869 31.7652 212.108 31.5 211.29 31.2727L208.426 30.4545C206.608 29.9318 205.169 29.1856 204.108 28.2159C203.047 27.2462 202.517 25.9773 202.517 24.4091C202.517 23.1061 202.869 21.9697 203.574 21C204.286 20.0227 205.241 19.2652 206.438 18.7273C207.642 18.1818 208.987 17.9091 210.472 17.9091C211.972 17.9091 213.305 18.178 214.472 18.7159C215.638 19.2462 216.563 19.9735 217.244 20.8977C217.934 21.822 218.297 22.8712 218.335 24.0455H215.608Z" fill="#F68234"/>
</svg>
