<svg width="25" height="24" viewBox="0 0 25 24" fill="none" xmlns="http://www.w3.org/2000/svg">
<path d="M2.50007 16.92V19.92C2.49894 20.1985 2.55598 20.4741 2.66756 20.7293C2.77913 20.9845 2.94277 21.2136 3.14799 21.4018C3.35321 21.5901 3.59549 21.7335 3.85932 21.8227C4.12314 21.9119 4.40269 21.945 4.68007 21.92C7.75723 21.5856 10.7131 20.5341 13.3101 18.85C15.7262 17.3146 17.7747 15.2661 19.3101 12.85C21.0001 10.2412 22.0518 7.27097 22.3801 4.17997C22.4051 3.90344 22.3722 3.62474 22.2836 3.3616C22.1949 3.09846 22.0525 2.85666 21.8653 2.6516C21.6781 2.44653 21.4503 2.28268 21.1963 2.1705C20.9423 2.05831 20.6677 2.00024 20.3901 1.99997H17.3901C16.9048 1.9952 16.4343 2.16705 16.0663 2.48351C15.6983 2.79996 15.458 3.23942 15.3901 3.71997C15.2634 4.68004 15.0286 5.6227 14.6901 6.52997C14.5555 6.8879 14.5264 7.27689 14.6062 7.65086C14.6859 8.02482 14.8712 8.36809 15.1401 8.63998L16.4101 9.90997C14.9865 12.4135 12.9136 14.4864 10.4101 15.91L9.14007 14.64C8.86818 14.3711 8.52491 14.1858 8.15095 14.1061C7.77698 14.0263 7.38799 14.0554 7.03007 14.19C6.12279 14.5285 5.18013 14.7634 4.22007 14.89C3.7343 14.9585 3.29067 15.2032 2.97353 15.5775C2.6564 15.9518 2.4879 16.4296 2.50007 16.92Z" stroke="white" stroke-width="2.5" stroke-linecap="round" stroke-linejoin="round"/>
</svg>
