<svg width="14" height="18" viewBox="0 0 14 18" fill="none" xmlns="http://www.w3.org/2000/svg">
<path d="M0.762074 18V0.545454H6.6598C8.02344 0.545454 9.14276 0.778409 10.0178 1.24432C10.8928 1.70454 11.5405 2.33807 11.9609 3.14489C12.3814 3.9517 12.5916 4.86932 12.5916 5.89773C12.5916 6.92614 12.3814 7.83807 11.9609 8.63352C11.5405 9.42898 10.8956 10.054 10.0263 10.5085C9.15696 10.9574 8.04617 11.1818 6.69389 11.1818H1.92116V9.27273H6.62571C7.55753 9.27273 8.30753 9.13636 8.87571 8.86364C9.44957 8.59091 9.86435 8.20455 10.12 7.70455C10.3814 7.19886 10.5121 6.59659 10.5121 5.89773C10.5121 5.19886 10.3814 4.58807 10.12 4.06534C9.85867 3.54261 9.44105 3.1392 8.86719 2.85511C8.29332 2.56534 7.5348 2.42045 6.59162 2.42045H2.87571V18H0.762074ZM8.97798 10.1591L13.2734 18H10.8189L6.59162 10.1591H8.97798Z" fill="white"/>
</svg>
