<svg width="26" height="16" viewBox="0 0 26 16" fill="none" xmlns="http://www.w3.org/2000/svg">
<path d="M9.09872 4.09091C9.01349 3.37121 8.66785 2.8125 8.06179 2.41477C7.45573 2.01705 6.71236 1.81818 5.83168 1.81818C5.18774 1.81818 4.62429 1.92235 4.14134 2.13068C3.66312 2.33901 3.28906 2.62547 3.01918 2.99006C2.75402 3.35464 2.62145 3.76894 2.62145 4.23295C2.62145 4.62121 2.71378 4.95502 2.89844 5.23438C3.08783 5.509 3.32931 5.73864 3.62287 5.9233C3.91643 6.10322 4.2242 6.25237 4.54616 6.37074C4.86813 6.48437 5.16406 6.5767 5.43395 6.64773L6.91122 7.04545C7.29001 7.14489 7.71141 7.2822 8.17543 7.45739C8.64418 7.63258 9.09162 7.87169 9.51776 8.17472C9.94863 8.47301 10.3037 8.85653 10.5831 9.32528C10.8625 9.79403 11.0021 10.3693 11.0021 11.0511C11.0021 11.8371 10.7962 12.5473 10.3842 13.1818C9.97704 13.8163 9.38045 14.3205 8.59446 14.6946C7.81321 15.0687 6.86387 15.2557 5.74645 15.2557C4.70478 15.2557 3.80279 15.0876 3.04048 14.7514C2.28291 14.4152 1.68632 13.9465 1.25071 13.3452C0.819839 12.7438 0.575994 12.0455 0.519176 11.25H2.33736C2.38471 11.7992 2.56937 12.2538 2.89134 12.6136C3.21804 12.9687 3.62997 13.2339 4.12713 13.4091C4.62902 13.5795 5.1688 13.6648 5.74645 13.6648C6.4188 13.6648 7.02249 13.5559 7.55753 13.3381C8.09257 13.1155 8.51634 12.8078 8.82884 12.4148C9.14134 12.017 9.29759 11.553 9.29759 11.0227C9.29759 10.5398 9.16264 10.1468 8.89276 9.84375C8.62287 9.54072 8.26776 9.29451 7.82741 9.10511C7.38707 8.91572 6.91122 8.75 6.39986 8.60795L4.61009 8.09659C3.47372 7.76989 2.5741 7.3035 1.91122 6.69744C1.24834 6.09138 0.916903 5.2983 0.916903 4.31818C0.916903 3.50379 1.13707 2.79356 1.57741 2.1875C2.02249 1.5767 2.61908 1.10322 3.36719 0.767045C4.12003 0.426136 4.96046 0.255681 5.88849 0.255681C6.82599 0.255681 7.65933 0.423768 8.38849 0.759943C9.11766 1.09138 9.69531 1.54593 10.1214 2.12358C10.5523 2.70123 10.7796 3.35701 10.8033 4.09091H9.09872ZM23.8413 5C23.685 4.52178 23.479 4.09328 23.2234 3.71449C22.9724 3.33097 22.6718 3.00426 22.3214 2.73438C21.9757 2.46449 21.5827 2.25852 21.1424 2.11648C20.7021 1.97443 20.2191 1.90341 19.6935 1.90341C18.8318 1.90341 18.0482 2.12595 17.3427 2.57102C16.6372 3.0161 16.0761 3.67188 15.6594 4.53835C15.2428 5.40483 15.0344 6.4678 15.0344 7.72727C15.0344 8.98674 15.2451 10.0497 15.6665 10.9162C16.0879 11.7827 16.6585 12.4384 17.3782 12.8835C18.0979 13.3286 18.9076 13.5511 19.8072 13.5511C20.6405 13.5511 21.3744 13.3736 22.0089 13.0185C22.6481 12.6586 23.1452 12.152 23.5004 11.4986C23.8602 10.8404 24.0401 10.0663 24.0401 9.17614L24.5799 9.28977H20.2049V7.72727H25.7447V9.28977C25.7447 10.4877 25.489 11.5294 24.9776 12.4148C24.471 13.3002 23.7702 13.9867 22.8754 14.4744C21.9852 14.9574 20.9625 15.1989 19.8072 15.1989C18.5193 15.1989 17.3877 14.8958 16.4123 14.2898C15.4416 13.6837 14.6841 12.822 14.1396 11.7045C13.5998 10.5871 13.3299 9.26136 13.3299 7.72727C13.3299 6.5767 13.4838 5.54214 13.7915 4.62358C14.104 3.70028 14.5444 2.9143 15.1126 2.26562C15.6808 1.61695 16.3531 1.11979 17.1296 0.774148C17.9061 0.428503 18.7608 0.255681 19.6935 0.255681C20.4606 0.255681 21.1755 0.371685 21.8384 0.603693C22.506 0.830965 23.1003 1.1553 23.6211 1.5767C24.1467 1.99337 24.5846 2.4929 24.935 3.07528C25.2854 3.65294 25.5269 4.29451 25.6594 5H23.8413Z" fill="white"/>
</svg>
